<svg width="20.000000" height="17.729980" viewBox="0 0 20 17.73" fill="none" xmlns="http://www.w3.org/2000/svg" xmlns:xlink="http://www.w3.org/1999/xlink">
	<desc>
			Created with Pixso.
	</desc>
	<defs/>
	<path id="Globe" d="M17.47 14.74C19.04 13.17 20 11.11 20 8.86C20 6.52 18.96 4.38 17.28 2.8L17.28 2.8C17.28 2.79 17.28 2.79 17.28 2.79C15.52 1.14 13.07 0.09 10.34 0L10.34 0L10.15 0C10.1 0 10.05 0 10 0C9.94 0 9.89 0 9.84 0L9.65 0L9.65 0C6.92 0.09 4.47 1.14 2.71 2.79C2.71 2.79 2.71 2.79 2.71 2.8C2.71 2.8 2.71 2.8 2.71 2.8C1.03 4.38 0 6.52 0 8.86C0 11.11 0.95 13.17 2.52 14.74C2.52 14.74 2.52 14.74 2.52 14.74C2.53 14.75 2.54 14.76 2.54 14.76C4.3 16.51 6.83 17.63 9.65 17.72L9.65 17.72L9.84 17.72C9.89 17.72 9.94 17.73 10 17.73C10.05 17.73 10.1 17.72 10.15 17.72L10.34 17.72L10.34 17.72C13.16 17.63 15.69 16.51 17.45 14.76C17.46 14.75 17.46 14.75 17.47 14.74C17.47 14.74 17.47 14.74 17.47 14.74ZM0.69 9.17L4.83 9.17C4.87 10.46 5.16 11.72 5.67 12.9C4.68 13.21 3.75 13.64 2.87 14.16C1.58 12.8 0.77 11.06 0.69 9.17ZM3.06 3.36C3.91 3.86 4.83 4.26 5.78 4.55C5.2 5.81 4.87 7.16 4.83 8.55L0.69 8.55C0.78 6.57 1.65 4.75 3.06 3.36ZM19.3 8.55L15.16 8.55C15.12 7.16 14.79 5.81 14.21 4.55C15.16 4.26 16.08 3.86 16.93 3.36C18.34 4.75 19.21 6.57 19.3 8.55ZM9.65 4.57C8.65 4.54 7.67 4.41 6.73 4.18C7.43 2.91 8.42 1.76 9.65 0.8L9.65 4.57ZM9.65 5.18L9.65 8.55L5.52 8.55C5.56 7.23 5.88 5.94 6.44 4.74C7.48 5.01 8.55 5.15 9.65 5.18ZM10.34 5.18C11.44 5.15 12.51 5.01 13.55 4.74C14.11 5.94 14.43 7.23 14.47 8.55L10.34 8.55L10.34 5.18ZM10.34 4.57L10.34 0.8C11.58 1.76 12.56 2.91 13.26 4.18C12.32 4.41 11.34 4.54 10.34 4.57ZM13.93 3.99C13.27 2.76 12.35 1.64 11.21 0.68C13.23 0.91 15.05 1.72 16.44 2.92C15.65 3.36 14.81 3.72 13.93 3.99ZM6.06 3.99C5.18 3.72 4.34 3.36 3.55 2.92C4.94 1.72 6.76 0.91 8.78 0.68C7.64 1.64 6.72 2.76 6.06 3.99ZM5.52 9.17L9.65 9.17L9.65 12.23C8.51 12.26 7.39 12.42 6.32 12.71C5.83 11.59 5.56 10.39 5.52 9.17ZM9.65 12.85L9.65 16.92C8.33 15.89 7.29 14.65 6.59 13.27C7.58 13.02 8.6 12.87 9.65 12.85ZM10.34 16.92L10.34 12.85C11.39 12.87 12.41 13.02 13.4 13.27C12.7 14.65 11.66 15.89 10.34 16.92ZM10.34 12.23L10.34 9.17L14.47 9.17C14.43 10.39 14.16 11.59 13.67 12.71C12.6 12.42 11.48 12.26 10.34 12.23ZM15.16 9.17L19.3 9.17C19.22 11.06 18.41 12.8 17.12 14.16C16.24 13.64 15.31 13.21 14.33 12.9C14.83 11.72 15.12 10.46 15.16 9.17ZM3.34 14.62C4.15 14.14 5.02 13.75 5.93 13.47C6.6 14.8 7.56 16.01 8.78 17.04C6.66 16.79 4.76 15.91 3.34 14.62ZM11.21 17.04C12.43 16.01 13.39 14.8 14.06 13.47C14.97 13.75 15.84 14.14 16.65 14.62C15.23 15.91 13.33 16.79 11.21 17.04Z" fill="#FFFFFF" fill-opacity="1.000000" fill-rule="nonzero"/>
</svg>
