<svg width="20.000000" height="17.729736" viewBox="0 0 20 17.7297" fill="none" xmlns="http://www.w3.org/2000/svg" xmlns:xlink="http://www.w3.org/1999/xlink">
	<desc>
			Created with Pixso.
	</desc>
	<defs/>
	<path id="Search" d="M19.87 16.57L14.06 11.42C15.17 10.22 15.83 8.68 15.83 7.01C15.83 3.14 12.28 0 7.91 0C3.55 0 0 3.14 0 7.01C0 10.88 3.55 14.03 7.91 14.03C9.79 14.03 11.52 13.44 12.88 12.47L18.69 17.62C18.86 17.76 19.12 17.76 19.28 17.62L19.87 17.09C20.04 16.95 20.04 16.72 19.87 16.57ZM7.91 12.55C4.47 12.55 1.66 10.07 1.66 7.01C1.66 3.96 4.47 1.47 7.91 1.47C11.36 1.47 14.16 3.96 14.16 7.01C14.16 10.07 11.36 12.55 7.91 12.55Z" fill="#FFFFFF" fill-opacity="1.000000" fill-rule="nonzero"/>
</svg>
