<svg width="25.000000" height="25.000000" viewBox="0 0 25 25" fill="none" xmlns="http://www.w3.org/2000/svg" xmlns:xlink="http://www.w3.org/1999/xlink">
	<desc>
			Created with Pixso.
	</desc>
	<defs>
		<clipPath id="clip20_241">
			<rect id="facebook-logo" width="25.000000" height="25.000000" fill="white" fill-opacity="0"/>
		</clipPath>
	</defs>
	<rect id="facebook-logo" width="25.000000" height="25.000000" fill="#FFFFFF" fill-opacity="0"/>
	<g clip-path="url(#clip20_241)">
		<path id="Vector" d="M18.74 0L15.5 0C11.86 0 9.51 2.41 9.51 6.15L9.51 8.98L6.25 8.98C5.97 8.98 5.74 9.21 5.74 9.49L5.74 13.6C5.74 13.89 5.97 14.11 6.25 14.11L9.51 14.11L9.51 24.49C9.51 24.77 9.73 25 10.02 25L14.27 25C14.55 25 14.78 24.77 14.78 24.49L14.78 14.11L18.59 14.11C18.87 14.11 19.1 13.89 19.1 13.6L19.1 9.49C19.1 9.36 19.05 9.23 18.95 9.13C18.86 9.04 18.73 8.98 18.59 8.98L14.78 8.98L14.78 6.58C14.78 5.42 15.05 4.84 16.56 4.84L18.74 4.84C19.03 4.84 19.25 4.61 19.25 4.33L19.25 0.51C19.25 0.23 19.03 0 18.74 0Z" fill="#E0E0E0" fill-opacity="1.000000" fill-rule="nonzero"/>
	</g>
</svg>
