<svg width="25.000000" height="25.000000" viewBox="0 0 25 25" fill="none" xmlns="http://www.w3.org/2000/svg" xmlns:xlink="http://www.w3.org/1999/xlink">
	<desc>
			Created with Pixso.
	</desc>
	<defs>
		<clipPath id="clip20_244">
			<rect id="instagram" width="25.000000" height="25.000000" fill="white" fill-opacity="0"/>
		</clipPath>
	</defs>
	<rect id="instagram" width="25.000000" height="25.000000" fill="#FFFFFF" fill-opacity="0"/>
	<g clip-path="url(#clip20_244)">
		<path id="Vector" d="M17.18 0L7.81 0C3.49 0 0 3.49 0 7.81L0 17.18C0 21.5 3.49 25 7.81 25L17.18 25C21.5 25 25 21.5 25 17.18L25 7.81C25 3.49 21.5 0 17.18 0ZM22.65 17.18C22.65 20.2 20.2 22.65 17.18 22.65L7.81 22.65C4.79 22.65 2.34 20.2 2.34 17.18L2.34 7.81C2.34 4.79 4.79 2.34 7.81 2.34L17.18 2.34C20.2 2.34 22.65 4.79 22.65 7.81L22.65 17.18Z" fill="#E0E0E0" fill-opacity="1.000000" fill-rule="nonzero"/>
		<path id="Vector" d="M12.5 6.25C9.04 6.25 6.25 9.04 6.25 12.5C6.25 15.95 9.04 18.75 12.5 18.75C15.95 18.75 18.75 15.95 18.75 12.5C18.75 9.04 15.95 6.25 12.5 6.25ZM12.5 16.4C10.34 16.4 8.59 14.65 8.59 12.5C8.59 10.34 10.34 8.59 12.5 8.59C14.65 8.59 16.4 10.34 16.4 12.5C16.4 14.65 14.65 16.4 12.5 16.4Z" fill="#E0E0E0" fill-opacity="1.000000" fill-rule="nonzero"/>
		<path id="Vector" d="M20.05 5.78C20.05 6.24 19.67 6.61 19.21 6.61C18.75 6.61 18.38 6.24 18.38 5.78C18.38 5.32 18.75 4.94 19.21 4.94C19.67 4.94 20.05 5.32 20.05 5.78Z" fill="#E0E0E0" fill-opacity="1.000000" fill-rule="evenodd"/>
	</g>
</svg>
