<svg width="44.000015" height="25.000000" viewBox="0 0 44 25" fill="none" xmlns="http://www.w3.org/2000/svg" xmlns:xlink="http://www.w3.org/1999/xlink">
	<desc>
			Created with Pixso.
	</desc>
	<defs/>
	<path id="Vector" d="M43.76 22.57C43.71 22.46 43.66 22.36 43.61 22.29C42.85 20.92 41.39 19.24 39.24 17.25L39.19 17.2L39.17 17.18L39.15 17.15L39.12 17.15C38.15 16.23 37.53 15.6 37.27 15.28C36.79 14.67 36.69 14.06 36.95 13.43C37.13 12.96 37.82 11.97 39.01 10.45C39.63 9.64 40.13 8.99 40.5 8.51C43.14 5.01 44.28 2.77 43.93 1.8L43.8 1.57C43.7 1.44 43.47 1.31 43.09 1.2C42.7 1.08 42.22 1.06 41.62 1.14L35.02 1.18C34.92 1.15 34.76 1.15 34.56 1.2C34.37 1.24 34.27 1.27 34.27 1.27L34.15 1.32L34.06 1.39C33.98 1.44 33.9 1.52 33.81 1.63C33.72 1.74 33.64 1.88 33.58 2.03C32.86 3.87 32.04 5.58 31.13 7.16C30.56 8.11 30.04 8.92 29.57 9.62C29.1 10.31 28.7 10.82 28.38 11.14C28.06 11.47 27.77 11.73 27.51 11.93C27.25 12.13 27.05 12.21 26.91 12.18C26.78 12.15 26.65 12.12 26.52 12.09C26.31 11.95 26.14 11.77 26.01 11.53C25.88 11.3 25.79 11 25.74 10.64C25.7 10.28 25.67 9.98 25.66 9.72C25.66 9.46 25.66 9.09 25.68 8.62C25.69 8.15 25.7 7.83 25.7 7.66C25.7 7.09 25.71 6.46 25.73 5.78C25.76 5.1 25.77 4.57 25.79 4.17C25.81 3.78 25.81 3.36 25.81 2.92C25.81 2.48 25.79 2.13 25.73 1.88C25.68 1.63 25.6 1.39 25.49 1.15C25.39 0.91 25.23 0.73 25.02 0.6C24.82 0.47 24.56 0.37 24.26 0.29C23.45 0.11 22.42 0.01 21.16 0C18.32 -0.03 16.5 0.15 15.69 0.55C15.37 0.71 15.08 0.94 14.82 1.23C14.54 1.56 14.5 1.75 14.7 1.78C15.62 1.91 16.27 2.24 16.65 2.76L16.79 3.03C16.89 3.23 17 3.58 17.11 4.08C17.21 4.58 17.28 5.14 17.31 5.75C17.39 6.86 17.39 7.81 17.31 8.6C17.24 9.39 17.17 10.01 17.1 10.45C17.03 10.89 16.92 11.25 16.79 11.52C16.65 11.79 16.56 11.96 16.51 12.02C16.47 12.08 16.43 12.12 16.4 12.13C16.2 12.21 15.99 12.25 15.78 12.25C15.57 12.25 15.31 12.14 15 11.93C14.7 11.72 14.38 11.42 14.05 11.05C13.72 10.68 13.35 10.16 12.94 9.49C12.53 8.82 12.1 8.03 11.66 7.12L11.29 6.45C11.06 6.03 10.75 5.41 10.35 4.6C9.95 3.78 9.6 2.99 9.3 2.23C9.17 1.91 8.99 1.67 8.75 1.5L8.63 1.43C8.56 1.37 8.43 1.31 8.27 1.24C8.1 1.17 7.92 1.12 7.74 1.09L1.46 1.14C0.82 1.14 0.38 1.28 0.16 1.57L0.06 1.71C0.02 1.78 0 1.91 0 2.07C0 2.24 0.04 2.45 0.13 2.69C1.05 4.83 2.05 6.9 3.12 8.89C4.2 10.89 5.13 12.49 5.93 13.71C6.72 14.93 7.53 16.07 8.36 17.15C9.18 18.23 9.73 18.93 9.99 19.23C10.26 19.53 10.47 19.76 10.62 19.91L11.2 20.46C11.56 20.83 12.1 21.26 12.81 21.77C13.52 22.28 14.31 22.78 15.17 23.28C16.04 23.77 17.04 24.18 18.18 24.49C19.33 24.8 20.45 24.93 21.53 24.87L24.16 24.87C24.7 24.82 25.1 24.65 25.38 24.36L25.47 24.25C25.53 24.16 25.59 24.02 25.64 23.83C25.69 23.64 25.72 23.43 25.72 23.2C25.71 22.55 25.76 21.96 25.87 21.43C25.98 20.91 26.11 20.51 26.26 20.25C26.41 19.98 26.57 19.75 26.75 19.57C26.94 19.39 27.07 19.28 27.14 19.24C27.22 19.2 27.28 19.18 27.32 19.16C27.69 19.04 28.12 19.16 28.62 19.52C29.12 19.87 29.58 20.31 30.02 20.84C30.45 21.36 30.98 21.95 31.59 22.61C32.2 23.26 32.73 23.75 33.19 24.07L33.65 24.34C33.95 24.52 34.35 24.69 34.84 24.84C35.33 25 35.76 25.03 36.12 24.96L41.99 24.87C42.57 24.87 43.02 24.77 43.34 24.58C43.66 24.39 43.85 24.18 43.91 23.95C43.97 23.73 43.98 23.47 43.92 23.18C43.87 22.89 43.81 22.69 43.76 22.57Z" fill="#E0E0E0" fill-opacity="1.000000" fill-rule="nonzero"/>
</svg>
