<svg width="35.000000" height="25.000000" viewBox="0 0 35 25" fill="none" xmlns="http://www.w3.org/2000/svg" xmlns:xlink="http://www.w3.org/1999/xlink">
	<desc>
			Created with Pixso.
	</desc>
	<defs/>
	<path id="Vector" d="M27.73 0L7.26 0C3.25 0 0 3.28 0 7.33L0 17.66C0 21.71 3.25 25 7.26 25L27.73 25C31.74 25 35 21.71 35 17.66L35 7.33C35 3.28 31.74 0 27.73 0ZM22.81 13L13.24 17.6C12.98 17.73 12.69 17.54 12.69 17.25L12.69 7.75C12.69 7.46 12.99 7.27 13.25 7.41L22.82 12.3C23.1 12.45 23.1 12.86 22.81 13Z" fill="#E0E0E0" fill-opacity="1.000000" fill-rule="nonzero"/>
</svg>
