<svg width="160.000000" height="53.000000" viewBox="0 0 160 53" fill="none" xmlns="http://www.w3.org/2000/svg" xmlns:xlink="http://www.w3.org/1999/xlink">
	<desc>
			Created with Pixso.
	</desc>
	<defs>
		<clipPath id="clip20_180">
			<rect id="Frame" width="160.000000" height="53.000000" fill="white" fill-opacity="0"/>
		</clipPath>
	</defs>
	<rect id="Frame" width="160.000000" height="53.000000" fill="#FFFFFF" fill-opacity="0"/>
	<g clip-path="url(#clip20_180)">
		<path id="Vector" d="M147.25 0L12.74 0C12.26 0 11.78 0 11.28 0C10.87 0 10.46 0.01 10.05 0.01C9.15 0.03 8.26 0.09 7.38 0.25C6.48 0.41 5.65 0.67 4.84 1.08C4.03 1.49 3.3 2.01 2.67 2.64C2.03 3.27 1.49 4 1.09 4.79C0.68 5.6 0.41 6.42 0.25 7.31C0.09 8.18 0.04 9.07 0.01 9.96C0.01 10.37 0 10.78 0 11.18C0 11.66 0 12.15 0 12.62L0 40.35C0 40.84 0 41.32 0 41.8C0 42.21 0.01 42.61 0.02 43.02C0.05 43.91 0.1 44.79 0.26 45.67C0.42 46.56 0.68 47.39 1.1 48.19C1.51 48.98 2.04 49.7 2.68 50.32C3.31 50.95 4.05 51.48 4.85 51.88C5.66 52.29 6.49 52.56 7.39 52.72C8.27 52.88 9.18 52.93 10.06 52.96C10.46 52.98 10.87 53 11.28 53C11.78 53 12.26 53 12.74 53L147.25 53C147.73 53 148.22 53 148.7 53C149.1 53 149.53 53 149.93 52.98C150.82 52.96 151.72 52.9 152.6 52.74C153.5 52.58 154.33 52.32 155.16 51.91C155.96 51.51 156.68 50.98 157.32 50.35C157.96 49.72 158.48 48.99 158.9 48.21C159.31 47.4 159.58 46.58 159.73 45.69C159.89 44.82 159.94 43.93 159.98 43.04C159.98 42.63 159.98 42.24 159.98 41.83C160 41.35 160 40.87 160 40.38L160 12.64C160 12.15 160 11.67 159.98 11.19C159.98 10.78 159.98 10.38 159.98 9.97C159.96 9.08 159.9 8.2 159.73 7.32C159.58 6.43 159.31 5.61 158.9 4.8C158.48 4.01 157.95 3.28 157.32 2.66C156.69 2.04 155.96 1.51 155.16 1.09C154.33 0.68 153.5 0.42 152.6 0.26C151.72 0.1 150.82 0.05 149.93 0.02C149.53 0.02 149.1 0.01 148.7 0.01C148.23 0 147.73 0 147.25 0Z" fill="#B7B7B7" fill-opacity="1.000000" fill-rule="nonzero"/>
		<path id="Vector" d="M11.28 51.84C10.88 51.84 10.48 51.84 10.08 51.83C9.33 51.8 8.45 51.76 7.58 51.62C6.76 51.47 6.04 51.23 5.36 50.89C4.66 50.54 4.03 50.08 3.49 49.54C2.94 48.99 2.48 48.38 2.12 47.68C1.77 47.02 1.53 46.29 1.4 45.48C1.24 44.59 1.2 43.68 1.17 42.99C1.16 42.71 1.16 41.79 1.16 41.79L1.16 11.18C1.16 11.18 1.17 10.26 1.17 10C1.2 9.31 1.24 8.4 1.4 7.52C1.55 6.7 1.79 5.98 2.14 5.32C2.5 4.63 2.95 4.01 3.5 3.47C4.05 2.91 4.68 2.46 5.36 2.12C6.04 1.77 6.78 1.53 7.56 1.4C8.47 1.23 9.38 1.19 10.08 1.17L11.28 1.16L148.7 1.16L149.91 1.17C150.6 1.19 151.52 1.23 152.4 1.39C153.2 1.53 153.94 1.76 154.63 2.12C155.32 2.46 155.95 2.92 156.49 3.47C157.04 4.01 157.5 4.63 157.86 5.32C158.2 6 158.43 6.71 158.58 7.51C158.74 8.34 158.78 9.2 158.81 10.01C158.81 10.38 158.81 10.79 158.81 11.19C158.82 11.69 158.82 12.16 158.82 12.64L158.82 40.37C158.82 40.84 158.82 41.32 158.81 41.8C158.81 42.24 158.81 42.62 158.81 43.03C158.78 43.81 158.73 44.67 158.58 45.48C158.45 46.29 158.2 47.02 157.86 47.7C157.5 48.38 157.04 49.01 156.49 49.54C155.95 50.09 155.32 50.54 154.62 50.89C153.93 51.23 153.22 51.47 152.39 51.62C151.53 51.78 150.65 51.82 149.89 51.83C149.5 51.84 149.09 51.84 148.68 51.84L147.24 51.84L11.28 51.84Z" fill="#000001" fill-opacity="1.000000" fill-rule="nonzero"/>
		<path id="XMLID 7" d="M33.12 26.89C33.08 23.25 36.12 21.47 36.27 21.39C34.55 18.9 31.87 18.56 30.94 18.53C28.69 18.29 26.51 19.86 25.37 19.86C24.21 19.86 22.45 18.55 20.55 18.59C18.1 18.63 15.81 20.03 14.57 22.2C11.99 26.64 13.92 33.16 16.39 36.75C17.63 38.51 19.08 40.47 20.98 40.39C22.83 40.32 23.53 39.23 25.76 39.23C27.98 39.23 28.62 40.39 30.56 40.36C32.55 40.33 33.81 38.59 35 36.82C36.43 34.8 37.01 32.82 37.03 32.72C36.97 32.71 33.16 31.27 33.12 26.89Z" fill="#FFFFFF" fill-opacity="1.000000" fill-rule="nonzero"/>
		<path id="XMLID 6" d="M29.46 16.17C30.47 14.94 31.15 13.26 30.95 11.55C29.5 11.62 27.7 12.54 26.66 13.75C25.73 14.81 24.92 16.56 25.13 18.2C26.75 18.32 28.42 17.39 29.46 16.17Z" fill="#FFFFFF" fill-opacity="1.000000" fill-rule="nonzero"/>
		<path id="Vector" d="M56.56 35.96L50.23 35.96L48.71 40.41L46.03 40.41L52.02 23.95L54.8 23.95L60.79 40.41L58.07 40.41L56.56 35.96ZM50.89 33.9L55.9 33.9L53.43 26.68L53.36 26.68L50.89 33.9Z" fill="#FFFFFF" fill-opacity="1.000000" fill-rule="nonzero"/>
		<path id="Vector" d="M73.75 34.41C73.75 38.13 71.73 40.53 68.7 40.53C66.97 40.53 65.61 39.76 64.88 38.43L64.83 38.43L64.83 44.37L62.34 44.37L62.34 28.4L64.75 28.4L64.75 30.4L64.79 30.4C65.49 29.12 66.96 28.28 68.64 28.28C71.73 28.28 73.75 30.68 73.75 34.41ZM71.2 34.41C71.2 31.98 69.93 30.38 68 30.38C66.1 30.38 64.82 32.01 64.82 34.41C64.82 36.82 66.1 38.45 68 38.45C69.93 38.45 71.2 36.86 71.2 34.41Z" fill="#FFFFFF" fill-opacity="1.000000" fill-rule="nonzero"/>
		<path id="Vector" d="M87.07 34.41C87.07 38.13 85.05 40.53 82.02 40.53C80.29 40.53 78.93 39.76 78.21 38.43L78.15 38.43L78.15 44.37L75.68 44.37L75.68 28.4L78.08 28.4L78.08 30.4L78.12 30.4C78.82 29.12 80.29 28.28 81.98 28.28C85.05 28.28 87.07 30.68 87.07 34.41ZM84.52 34.41C84.52 31.98 83.25 30.38 81.32 30.38C79.42 30.38 78.14 32.01 78.14 34.41C78.14 36.82 79.42 38.45 81.32 38.45C83.26 38.45 84.52 36.86 84.52 34.41Z" fill="#FFFFFF" fill-opacity="1.000000" fill-rule="nonzero"/>
		<path id="Vector" d="M95.88 35.82C96.07 37.45 97.66 38.53 99.85 38.53C101.95 38.53 103.45 37.45 103.45 35.98C103.45 34.71 102.54 33.94 100.39 33.41L98.23 32.89C95.18 32.17 93.77 30.75 93.77 28.46C93.77 25.62 96.27 23.67 99.81 23.67C103.31 23.67 105.72 25.62 105.8 28.46L103.29 28.46C103.14 26.81 101.76 25.82 99.77 25.82C97.78 25.82 96.4 26.83 96.4 28.28C96.4 29.45 97.27 30.13 99.41 30.66L101.24 31.11C104.65 31.9 106.07 33.27 106.07 35.66C106.07 38.74 103.59 40.67 99.66 40.67C95.99 40.67 93.5 38.79 93.34 35.81L95.88 35.81L95.88 35.82Z" fill="#FFFFFF" fill-opacity="1.000000" fill-rule="nonzero"/>
		<path id="Vector" d="M111.44 25.57L111.44 28.4L113.74 28.4L113.74 30.35L111.44 30.35L111.44 36.96C111.44 38 111.9 38.47 112.92 38.47C113.17 38.47 113.57 38.43 113.73 38.42L113.73 40.36C113.45 40.42 112.9 40.47 112.35 40.47C109.91 40.47 108.94 39.56 108.94 37.24L108.94 30.36L107.18 30.36L107.18 28.42L108.94 28.42L108.94 25.57L111.44 25.57Z" fill="#FFFFFF" fill-opacity="1.000000" fill-rule="nonzero"/>
		<path id="Vector" d="M115.07 34.41C115.07 30.63 117.31 28.26 120.8 28.26C124.32 28.26 126.54 30.63 126.54 34.41C126.54 38.2 124.32 40.55 120.8 40.55C117.3 40.55 115.07 38.2 115.07 34.41ZM124.03 34.41C124.03 31.82 122.82 30.29 120.82 30.29C118.81 30.29 117.61 31.82 117.61 34.41C117.61 37 118.8 38.53 120.82 38.53C122.84 38.53 124.03 37 124.03 34.41Z" fill="#FFFFFF" fill-opacity="1.000000" fill-rule="nonzero"/>
		<path id="Vector" d="M128.61 28.4L130.98 28.4L130.98 30.44L131.03 30.44C131.41 29.09 132.52 28.27 133.95 28.27C134.31 28.27 134.61 28.32 134.81 28.36L134.81 30.67C134.61 30.59 134.18 30.52 133.7 30.52C132.09 30.52 131.1 31.6 131.1 33.28L131.1 40.39L128.61 40.39L128.61 28.4Z" fill="#FFFFFF" fill-opacity="1.000000" fill-rule="nonzero"/>
		<path id="Vector" d="M146.25 36.88C145.92 39.06 143.78 40.55 141.04 40.55C137.52 40.55 135.33 38.22 135.33 34.46C135.33 30.7 137.52 28.26 140.93 28.26C144.27 28.26 146.38 30.54 146.38 34.18L146.38 35.03L137.84 35.03L137.84 35.17C137.84 37.23 139.14 38.57 141.1 38.57C142.48 38.57 143.56 37.92 143.9 36.88L146.25 36.88ZM137.85 33.29L143.91 33.29C143.86 31.45 142.67 30.25 140.94 30.25C139.23 30.26 137.99 31.49 137.85 33.29Z" fill="#FFFFFF" fill-opacity="1.000000" fill-rule="nonzero"/>
		<path id="Vector" d="M49.12 14.9L50.19 14.9C51.07 14.9 51.7 14.38 51.7 13.64C51.7 12.91 51.15 12.44 50.2 12.44C49.27 12.44 48.67 12.9 48.6 13.67L47.42 13.67C47.5 12.24 48.57 11.35 50.24 11.35C51.81 11.35 52.92 12.22 52.92 13.47C52.92 14.34 52.33 15.09 51.47 15.27L51.47 15.36C52.5 15.47 53.25 16.17 53.25 17.27C53.25 18.62 51.95 19.62 50.27 19.62C48.53 19.62 47.34 18.69 47.28 17.27L48.47 17.27C48.53 18.03 49.24 18.52 50.27 18.52C51.3 18.52 51.98 17.98 51.98 17.19C51.98 16.41 51.34 15.92 50.23 15.92L49.13 15.92L49.13 14.9L49.12 14.9Z" fill="#FFFFFF" fill-opacity="1.000000" fill-rule="nonzero"/>
		<path id="Vector" d="M54.59 17.78C54.59 16.7 55.39 16.08 56.82 16L58.45 15.91L58.45 15.39C58.45 14.76 58.04 14.41 57.22 14.41C56.55 14.41 56.1 14.65 55.96 15.07L54.81 15.07C54.94 14.05 55.91 13.39 57.28 13.39C58.79 13.39 59.64 14.13 59.64 15.39L59.64 19.47L58.49 19.47L58.49 18.64L58.4 18.64C58.04 19.23 57.38 19.58 56.59 19.58C55.43 19.56 54.59 18.88 54.59 17.78ZM58.45 17.27L58.45 16.77L56.98 16.86C56.15 16.91 55.78 17.19 55.78 17.72C55.78 18.27 56.25 18.57 56.89 18.57C57.8 18.57 58.45 18.01 58.45 17.27Z" fill="#FFFFFF" fill-opacity="1.000000" fill-rule="nonzero"/>
		<path id="Vector" d="M62.8 14.49L62.8 19.46L61.61 19.46L61.61 13.5L65.57 13.5L65.57 14.49L62.8 14.49Z" fill="#FFFFFF" fill-opacity="1.000000" fill-rule="nonzero"/>
		<path id="Vector" d="M72.77 16.48C72.77 18.37 71.81 19.56 70.29 19.56C69.43 19.56 68.75 19.19 68.43 18.56L68.33 18.56L68.33 21.45L67.14 21.45L67.14 13.5L68.29 13.5L68.29 14.48L68.39 14.48C68.75 13.8 69.46 13.39 70.27 13.39C71.81 13.4 72.77 14.58 72.77 16.48ZM71.56 16.48C71.56 15.22 70.95 14.45 69.95 14.45C68.95 14.45 68.32 15.23 68.32 16.48C68.32 17.72 68.95 18.5 69.94 18.5C70.95 18.5 71.56 17.75 71.56 16.48Z" fill="#FFFFFF" fill-opacity="1.000000" fill-rule="nonzero"/>
		<path id="Vector" d="M74.35 21.61L74.35 20.59C74.44 20.6 74.63 20.61 74.74 20.61C75.3 20.61 75.62 20.39 75.82 19.78L75.92 19.49L73.74 13.5L75.03 13.5L76.54 18.24L76.64 18.24L78.15 13.5L79.41 13.5L77.16 19.71C76.65 21.17 76.08 21.63 74.85 21.63C74.75 21.63 74.47 21.62 74.35 21.61Z" fill="#FFFFFF" fill-opacity="1.000000" fill-rule="nonzero"/>
		<path id="Vector" d="M80.33 17.78L81.5 17.78C81.62 18.31 82.12 18.57 82.81 18.57C83.6 18.57 84.1 18.23 84.1 17.68C84.1 17.11 83.66 16.84 82.81 16.84L81.92 16.84L81.92 15.92L82.8 15.92C83.52 15.92 83.88 15.64 83.88 15.15C83.88 14.72 83.54 14.38 82.8 14.38C82.13 14.38 81.65 14.66 81.57 15.14L80.42 15.14C80.54 14.08 81.44 13.39 82.79 13.39C84.22 13.39 85.03 14.03 85.03 15.03C85.03 15.63 84.65 16.12 84.08 16.25L84.08 16.35C84.86 16.53 85.26 17.02 85.26 17.68C85.26 18.82 84.29 19.56 82.8 19.56C81.5 19.58 80.43 18.98 80.33 17.78Z" fill="#FFFFFF" fill-opacity="1.000000" fill-rule="nonzero"/>
		<path id="Vector" d="M87 19.47L87 13.51L88.18 13.51L88.18 17.62L88.27 17.62L91.05 13.51L92.23 13.51L92.23 19.47L91.05 19.47L91.05 15.35L90.96 15.35L88.18 19.47L87 19.47Z" fill="#FFFFFF" fill-opacity="1.000000" fill-rule="nonzero"/>
		<path id="Vector" d="M98.71 14.49L96.81 14.49L96.81 19.46L95.62 19.46L95.62 14.49L93.72 14.49L93.72 13.5L98.71 13.5L98.71 14.49Z" fill="#FFFFFF" fill-opacity="1.000000" fill-rule="nonzero"/>
		<path id="Vector" d="M105.1 17.86C104.84 18.93 103.87 19.58 102.5 19.58C100.77 19.58 99.72 18.41 99.72 16.5C99.72 14.6 100.8 13.39 102.5 13.39C104.17 13.39 105.18 14.53 105.18 16.4L105.18 16.81L100.93 16.81L100.93 16.88C100.97 17.92 101.59 18.58 102.54 18.58C103.26 18.58 103.75 18.33 103.97 17.86L105.1 17.86ZM100.93 15.93L103.97 15.93C103.94 14.99 103.37 14.38 102.48 14.38C101.6 14.38 101 15.01 100.93 15.93Z" fill="#FFFFFF" fill-opacity="1.000000" fill-rule="nonzero"/>
		<path id="Vector" d="M110.15 13.5L112.86 13.5C114.04 13.5 114.73 14.09 114.73 15.02C114.73 15.63 114.3 16.17 113.72 16.28L113.72 16.37C114.49 16.46 115 17.02 115 17.75C115 18.8 114.21 19.47 112.89 19.47L110.15 19.47L110.15 13.5ZM111.32 14.41L111.32 15.96L112.5 15.96C113.22 15.96 113.56 15.68 113.56 15.18C113.56 14.72 113.26 14.41 112.62 14.41L111.32 14.41ZM111.32 16.82L111.32 18.57L112.73 18.57C113.44 18.57 113.81 18.27 113.81 17.7C113.81 17.1 113.38 16.82 112.58 16.82L111.32 16.82Z" fill="#FFFFFF" fill-opacity="1.000000" fill-rule="nonzero"/>
	</g>
</svg>
