<svg width="160.000000" height="47.000000" viewBox="0 0 160 47" fill="none" xmlns="http://www.w3.org/2000/svg" xmlns:xlink="http://www.w3.org/1999/xlink">
	<desc>
			Created with Pixso.
	</desc>
	<defs>
		<clipPath id="clip20_213">
			<rect id="Frame" width="160.000000" height="47.000000" fill="white" fill-opacity="0"/>
		</clipPath>
		<linearGradient x1="25.837090" y1="10.233131" x2="5.946839" y2="29.952454" id="paint_linear_20_222_0" gradientUnits="userSpaceOnUse">
			<stop stop-color="#00A0FF"/>
			<stop offset="0.006574" stop-color="#00A1FF"/>
			<stop offset="0.260100" stop-color="#00BEFF"/>
			<stop offset="0.512200" stop-color="#00D2FF"/>
			<stop offset="0.760400" stop-color="#00DFFF"/>
			<stop offset="1.000000" stop-color="#00E3FF"/>
		</linearGradient>
		<linearGradient x1="40.098755" y1="23.501461" x2="11.420948" y2="23.501461" id="paint_linear_20_223_0" gradientUnits="userSpaceOnUse">
			<stop stop-color="#FFE000"/>
			<stop offset="0.408700" stop-color="#FFBD00"/>
			<stop offset="0.775400" stop-color="#FFA500"/>
			<stop offset="1.000000" stop-color="#FF9C00"/>
		</linearGradient>
		<linearGradient x1="29.422367" y1="26.195107" x2="2.449560" y2="52.936104" id="paint_linear_20_224_0" gradientUnits="userSpaceOnUse">
			<stop stop-color="#FF3A44"/>
			<stop offset="1.000000" stop-color="#C31162"/>
		</linearGradient>
		<linearGradient x1="8.648072" y1="0.205980" x2="20.692635" y2="12.146915" id="paint_linear_20_225_0" gradientUnits="userSpaceOnUse">
			<stop stop-color="#32A071"/>
			<stop offset="0.068500" stop-color="#2DA771"/>
			<stop offset="0.476200" stop-color="#15CF74"/>
			<stop offset="0.800900" stop-color="#06E775"/>
			<stop offset="1.000000" stop-color="#00F076"/>
		</linearGradient>
	</defs>
	<rect id="Frame" width="160.000000" height="47.000000" fill="#FFFFFF" fill-opacity="0"/>
	<g clip-path="url(#clip20_213)">
		<path id="Vector" d="M154.07 47L5.92 47C2.66 47 0 44.35 0 41.12L0 5.87C0 2.64 2.66 0 5.92 0L154.07 0C157.33 0 160 2.64 160 5.87L160 41.12C160 44.35 157.33 47 154.07 47Z" fill="#000000" fill-opacity="1.000000" fill-rule="nonzero"/>
		<path id="Vector" d="M154.07 0.93C156.82 0.93 159.05 3.14 159.05 5.87L159.05 41.12C159.05 43.85 156.82 46.06 154.07 46.06L5.92 46.06C3.17 46.06 0.94 43.85 0.94 41.12L0.94 5.87C0.94 3.14 3.17 0.93 5.92 0.93L154.07 0.93ZM154.07 0L5.92 0C2.66 0 0 2.64 0 5.87L0 41.12C0 44.35 2.66 47 5.92 47L154.07 47C157.33 47 160 44.35 160 41.12L160 5.87C160 2.64 157.33 0 154.07 0Z" fill="#A6A6A6" fill-opacity="1.000000" fill-rule="nonzero"/>
		<path id="Vector" d="M80.75 25.55C77.97 25.55 75.69 27.66 75.69 30.55C75.69 33.42 77.97 35.54 80.75 35.54C83.54 35.54 85.81 33.42 85.81 30.55C85.81 27.66 83.54 25.55 80.75 25.55ZM80.75 33.58C79.22 33.58 77.91 32.33 77.91 30.55C77.91 28.75 79.22 27.51 80.75 27.51C82.28 27.51 83.6 28.75 83.6 30.55C83.6 32.33 82.27 33.58 80.75 33.58ZM69.71 25.55C66.92 25.55 64.65 27.66 64.65 30.55C64.65 33.42 66.92 35.54 69.71 35.54C72.49 35.54 74.77 33.42 74.77 30.55C74.77 27.66 72.49 25.55 69.71 25.55ZM69.71 33.58C68.18 33.58 66.86 32.33 66.86 30.55C66.86 28.75 68.18 27.51 69.71 27.51C71.24 27.51 72.55 28.75 72.55 30.55C72.55 32.33 71.24 33.58 69.71 33.58ZM56.58 27.09L56.58 29.21L61.7 29.21C61.54 30.39 61.14 31.27 60.53 31.87C59.79 32.61 58.63 33.42 56.59 33.42C53.43 33.42 50.97 30.91 50.97 27.78C50.97 24.66 53.43 22.14 56.59 22.14C58.28 22.14 59.53 22.8 60.44 23.66L61.94 22.17C60.66 20.96 58.97 20.03 56.58 20.03C52.26 20.03 48.63 23.51 48.63 27.8C48.63 32.07 52.26 35.56 56.58 35.56C58.91 35.56 60.66 34.81 62.04 33.39C63.45 31.99 63.89 30.02 63.89 28.43C63.89 27.94 63.85 27.48 63.77 27.1L56.58 27.1L56.58 27.09ZM110.28 28.74C109.86 27.62 108.58 25.55 105.96 25.55C103.37 25.55 101.21 27.57 101.21 30.55C101.21 33.34 103.34 35.54 106.21 35.54C108.52 35.54 109.86 34.14 110.41 33.33L108.69 32.19C108.12 33.03 107.34 33.58 106.21 33.58C105.09 33.58 104.28 33.06 103.77 32.06L110.51 29.3L110.28 28.74ZM103.4 30.41C103.34 28.48 104.91 27.49 106.03 27.49C106.91 27.49 107.66 27.93 107.91 28.55L103.4 30.41ZM97.93 35.25L100.14 35.25L100.14 20.56L97.93 20.56L97.93 35.25ZM94.3 26.67L94.22 26.67C93.72 26.08 92.77 25.55 91.56 25.55C89.04 25.55 86.73 27.75 86.73 30.57C86.73 33.37 89.04 35.55 91.56 35.55C92.76 35.55 93.72 35.02 94.22 34.41L94.29 34.41L94.29 35.13C94.29 37.04 93.26 38.07 91.6 38.07C90.25 38.07 89.4 37.1 89.06 36.29L87.13 37.09C87.69 38.42 89.16 40.04 91.6 40.04C94.19 40.04 96.39 38.52 96.39 34.83L96.39 25.86L94.29 25.86L94.29 26.67L94.3 26.67ZM91.75 33.58C90.22 33.58 88.94 32.31 88.94 30.57C88.94 28.81 90.22 27.53 91.75 27.53C93.26 27.53 94.44 28.82 94.44 30.57C94.45 32.31 93.27 33.58 91.75 33.58ZM120.66 20.56L115.36 20.56L115.36 35.25L117.58 35.25L117.58 29.68L120.67 29.68C123.12 29.68 125.53 27.91 125.53 25.12C125.53 22.32 123.1 20.56 120.66 20.56ZM120.71 27.63L117.57 27.63L117.57 22.59L120.71 22.59C122.37 22.59 123.3 23.95 123.3 25.11C123.3 26.26 122.37 27.63 120.71 27.63ZM134.38 25.53C132.78 25.53 131.12 26.23 130.44 27.77L132.4 28.58C132.82 27.77 133.6 27.5 134.42 27.5C135.57 27.5 136.73 28.18 136.74 29.39L136.74 29.55C136.34 29.32 135.49 28.98 134.43 28.98C132.31 28.98 130.16 30.13 130.16 32.29C130.16 34.25 131.89 35.52 133.84 35.52C135.32 35.52 136.15 34.86 136.66 34.08L136.73 34.08L136.73 35.22L138.86 35.22L138.86 29.59C138.87 26.99 136.91 25.53 134.38 25.53ZM134.11 33.58C133.39 33.58 132.38 33.21 132.38 32.33C132.38 31.2 133.64 30.77 134.73 30.77C135.7 30.77 136.16 30.98 136.74 31.26C136.58 32.61 135.39 33.58 134.11 33.58ZM146.65 25.85L144.11 32.21L144.04 32.21L141.41 25.85L139.03 25.85L142.98 34.75L140.72 39.7L143.03 39.7L149.11 25.85L146.65 25.85ZM126.74 35.25L128.95 35.25L128.95 20.56L126.74 20.56L126.74 35.25Z" fill="#FFFFFF" fill-opacity="1.000000" fill-rule="nonzero"/>
		<path id="Vector" d="M12.37 8.85C12.03 9.22 11.82 9.78 11.82 10.5L11.82 36.49C11.82 37.22 12.03 37.78 12.37 38.13L12.45 38.22L27.14 23.67L27.14 23.49L27.14 23.32L12.45 8.77L12.37 8.85Z" fill="url(#paint_linear_20_222_0)" fill-opacity="1.000000" fill-rule="nonzero"/>
		<path id="Vector" d="M32.03 28.52L27.13 23.67L27.13 23.49L27.13 23.32L32.03 18.47L32.14 18.52L37.93 21.79C39.59 22.72 39.59 24.25 37.93 25.19L32.14 28.45L32.03 28.52Z" fill="url(#paint_linear_20_223_0)" fill-opacity="1.000000" fill-rule="nonzero"/>
		<path id="Vector" d="M32.14 28.46L27.13 23.49L12.37 38.13C12.91 38.71 13.81 38.78 14.83 38.2L32.14 28.46Z" fill="url(#paint_linear_20_224_0)" fill-opacity="1.000000" fill-rule="nonzero"/>
		<path id="Vector" d="M32.14 18.54L14.82 8.78C13.8 8.21 12.9 8.28 12.36 8.85L27.14 23.49L32.14 18.54Z" fill="url(#paint_linear_20_225_0)" fill-opacity="1.000000" fill-rule="nonzero"/>
		<g opacity="0.200000">
			<path id="Vector" d="M32.03 28.35L14.82 38.04C13.86 38.58 13 38.55 12.45 38.05L12.37 38.13L12.45 38.22C13.01 38.71 13.86 38.75 14.82 38.21L32.14 28.45L32.03 28.35Z" fill="#000000" fill-opacity="1.000000" fill-rule="nonzero"/>
		</g>
		<g opacity="0.120000">
			<path id="Vector" d="M12.37 37.97C12.03 37.61 11.82 37.04 11.82 36.33L11.82 36.5C11.82 37.23 12.03 37.8 12.37 38.15L12.45 38.07L12.37 37.97Z" fill="#000000" fill-opacity="1.000000" fill-rule="nonzero"/>
		</g>
		<g opacity="0.120000">
			<path id="Vector" d="M37.93 25.02L32.02 28.34L32.13 28.45L37.92 25.18C38.75 24.71 39.17 24.1 39.17 23.49C39.11 24.04 38.69 24.6 37.93 25.02Z" fill="#000000" fill-opacity="1.000000" fill-rule="nonzero"/>
		</g>
		<g opacity="0.250000">
			<path id="Vector" d="M14.82 8.95L37.93 21.97C38.68 22.39 39.11 22.93 39.18 23.49C39.18 22.88 38.76 22.26 37.93 21.8L14.82 8.78C13.16 7.86 11.81 8.63 11.81 10.51L11.81 10.69C11.81 8.8 13.17 8.02 14.82 8.95Z" fill="#FFFFFF" fill-opacity="1.000000" fill-rule="nonzero"/>
		</g>
		<path id="Vector" d="M49.9 16.76L49.03 16.76L49.03 14.4L49.73 14.4C50.34 13.87 50.64 12.98 50.63 11.7L50.63 8.22L55.38 8.22L55.38 14.4L56.17 14.4L56.17 16.76L55.3 16.76L55.3 15.27L49.9 15.27L49.9 16.76ZM51.55 11.71C51.56 12.82 51.34 13.72 50.88 14.41L54.47 14.41L54.47 9.09L51.55 9.09L51.55 11.71Z" fill="#FFFFFF" fill-opacity="1.000000" fill-rule="nonzero"/>
		<path id="Vector" d="M49.03 16.76L49.03 14.4L49.73 14.4C50.34 13.87 50.64 12.98 50.63 11.7L50.63 8.22L55.38 8.22L55.38 14.4L56.17 14.4L56.17 16.76L55.3 16.76L55.3 15.27L49.9 15.27L49.9 16.76L49.03 16.76ZM50.88 14.41L54.47 14.41L54.47 9.09L51.55 9.09L51.55 11.71C51.56 12.82 51.34 13.72 50.88 14.41Z" stroke="#FFFFFF" stroke-opacity="1.000000" stroke-width="0.200000"/>
		<path id="Vector" d="M63.3 14.35C62.6 15.07 61.73 15.42 60.69 15.42C59.65 15.42 58.78 15.07 58.08 14.35C57.38 13.64 57.04 12.77 57.04 11.74C57.04 10.72 57.38 9.84 58.08 9.14C58.78 8.42 59.65 8.07 60.69 8.07C61.72 8.07 62.59 8.42 63.3 9.14C64 9.85 64.35 10.72 64.35 11.74C64.35 12.78 64 13.65 63.3 14.35ZM58.76 13.77C59.28 14.29 59.93 14.55 60.69 14.55C61.45 14.55 62.1 14.29 62.62 13.77C63.14 13.24 63.42 12.57 63.42 11.74C63.42 10.92 63.16 10.25 62.62 9.72C62.1 9.19 61.46 8.92 60.69 8.92C59.93 8.92 59.28 9.18 58.76 9.71C58.24 10.25 57.98 10.92 57.98 11.74C57.98 12.57 58.24 13.24 58.76 13.77Z" fill="#FFFFFF" fill-opacity="1.000000" fill-rule="nonzero"/>
		<path id="Vector" d="M60.69 15.42C59.65 15.42 58.78 15.07 58.08 14.35C57.38 13.64 57.04 12.77 57.04 11.74C57.04 10.72 57.38 9.84 58.08 9.14C58.78 8.42 59.65 8.07 60.69 8.07C61.72 8.07 62.59 8.42 63.3 9.14C64 9.85 64.35 10.72 64.35 11.74C64.35 12.78 64 13.65 63.3 14.35C62.6 15.07 61.73 15.42 60.69 15.42ZM60.69 14.55C61.45 14.55 62.1 14.29 62.62 13.77C63.14 13.24 63.42 12.57 63.42 11.74C63.42 10.92 63.16 10.25 62.62 9.72C62.1 9.19 61.46 8.92 60.69 8.92C59.93 8.92 59.28 9.18 58.76 9.71C58.24 10.25 57.98 10.92 57.98 11.74C57.98 12.57 58.24 13.24 58.76 13.77C59.28 14.29 59.93 14.55 60.69 14.55Z" stroke="#FFFFFF" stroke-opacity="1.000000" stroke-width="0.200000"/>
		<path id="Vector" d="M68.95 15.42C67.91 15.42 67.03 15.07 66.32 14.37C65.61 13.66 65.25 12.79 65.25 11.73C65.25 10.69 65.61 9.81 66.32 9.1C67.03 8.4 67.91 8.04 68.95 8.04C70.02 8.04 70.9 8.43 71.56 9.2L70.92 9.81C70.43 9.21 69.78 8.91 68.94 8.91C68.17 8.91 67.51 9.17 66.97 9.69C66.44 10.21 66.18 10.89 66.18 11.72C66.18 12.56 66.44 13.24 66.97 13.75C67.51 14.27 68.16 14.53 68.94 14.53C69.79 14.53 70.52 14.19 71.12 13.51L71.76 14.14C71.44 14.53 71.03 14.84 70.54 15.06C70.05 15.32 69.52 15.42 68.95 15.42Z" fill="#FFFFFF" fill-opacity="1.000000" fill-rule="nonzero"/>
		<path id="Vector" d="M66.32 14.37C65.61 13.66 65.25 12.79 65.25 11.73C65.25 10.69 65.61 9.81 66.32 9.1C67.03 8.4 67.91 8.04 68.95 8.04C70.02 8.04 70.9 8.43 71.56 9.2L70.92 9.81C70.43 9.21 69.78 8.91 68.94 8.91C68.17 8.91 67.51 9.17 66.97 9.69C66.44 10.21 66.18 10.89 66.18 11.72C66.18 12.56 66.44 13.24 66.97 13.75C67.51 14.27 68.16 14.53 68.94 14.53C69.79 14.53 70.52 14.19 71.12 13.51L71.76 14.14C71.44 14.53 71.03 14.84 70.54 15.06C70.05 15.32 69.52 15.42 68.95 15.42C67.91 15.42 67.03 15.07 66.32 14.37Z" stroke="#FFFFFF" stroke-opacity="1.000000" stroke-width="0.200000"/>
		<path id="Vector" d="M75.47 15.27L74.56 15.27L74.56 9.09L72.56 9.09L72.56 8.22L77.45 8.22L77.45 9.09L75.46 9.09L75.46 15.27L75.47 15.27Z" fill="#FFFFFF" fill-opacity="1.000000" fill-rule="nonzero"/>
		<path id="Vector" d="M74.56 15.27L74.56 9.09L72.56 9.09L72.56 8.22L77.45 8.22L77.45 9.09L75.46 9.09L75.46 15.27L75.47 15.27L74.56 15.27Z" stroke="#FFFFFF" stroke-opacity="1.000000" stroke-width="0.200000"/>
		<path id="Vector" d="M83.73 8.22L81.04 14.16C80.67 15 80.11 15.42 79.38 15.42C79.17 15.42 78.93 15.37 78.67 15.27L78.91 14.43C79.06 14.52 79.21 14.56 79.38 14.56C79.59 14.56 79.76 14.53 79.88 14.45C80 14.36 80.1 14.21 80.2 14L80.46 13.43L78.06 8.22L79.14 8.22L80.9 12.26L80.93 12.26L82.65 8.22L83.73 8.22Z" fill="#FFFFFF" fill-opacity="1.000000" fill-rule="nonzero"/>
		<path id="Vector" d="M81.04 14.16C80.67 15 80.11 15.42 79.38 15.42C79.17 15.42 78.93 15.37 78.67 15.27L78.91 14.43C79.06 14.52 79.21 14.56 79.38 14.56C79.59 14.56 79.76 14.53 79.88 14.45C80 14.36 80.1 14.21 80.2 14L80.46 13.43L78.06 8.22L79.14 8.22L80.9 12.26L80.93 12.26L82.65 8.22L83.73 8.22L81.04 14.16Z" stroke="#FFFFFF" stroke-opacity="1.000000" stroke-width="0.200000"/>
		<path id="Vector" d="M84.76 15.27L84.76 8.22L89.9 8.22L89.9 15.27L88.99 15.27L88.99 9.09L85.67 9.09L85.67 15.27L84.76 15.27Z" fill="#FFFFFF" fill-opacity="1.000000" fill-rule="nonzero"/>
		<path id="Vector" d="M84.76 8.22L89.9 8.22L89.9 15.27L88.99 15.27L88.99 9.09L85.67 9.09L85.67 15.27L84.76 15.27L84.76 8.22Z" stroke="#FFFFFF" stroke-opacity="1.000000" stroke-width="0.200000"/>
		<path id="Vector" d="M91.53 15.27L91.53 8.22L92.44 8.22L92.44 11.24L96 11.24L96 8.22L96.91 8.22L96.91 15.27L96 15.27L96 12.08L92.44 12.08L92.44 15.27L91.53 15.27Z" fill="#FFFFFF" fill-opacity="1.000000" fill-rule="nonzero"/>
		<path id="Vector" d="M91.53 8.22L92.44 8.22L92.44 11.24L96 11.24L96 8.22L96.91 8.22L96.91 15.27L96 15.27L96 12.08L92.44 12.08L92.44 15.27L91.53 15.27L91.53 8.22Z" stroke="#FFFFFF" stroke-opacity="1.000000" stroke-width="0.200000"/>
		<path id="Vector" d="M104.36 14.35C103.66 15.07 102.8 15.42 101.76 15.42C100.71 15.42 99.85 15.07 99.15 14.35C98.45 13.64 98.11 12.77 98.11 11.74C98.11 10.72 98.45 9.84 99.15 9.14C99.85 8.42 100.71 8.07 101.76 8.07C102.79 8.07 103.65 8.42 104.36 9.14C105.06 9.85 105.42 10.72 105.42 11.74C105.41 12.78 105.06 13.65 104.36 14.35ZM99.82 13.77C100.35 14.29 101 14.55 101.76 14.55C102.52 14.55 103.17 14.29 103.69 13.77C104.21 13.24 104.48 12.57 104.48 11.74C104.48 10.92 104.22 10.25 103.69 9.72C103.16 9.19 102.52 8.92 101.76 8.92C101 8.92 100.35 9.18 99.82 9.71C99.29 10.25 99.03 10.92 99.03 11.74C99.03 12.57 99.29 13.24 99.82 13.77Z" fill="#FFFFFF" fill-opacity="1.000000" fill-rule="nonzero"/>
		<path id="Vector" d="M101.76 15.42C100.71 15.42 99.85 15.07 99.15 14.35C98.45 13.64 98.11 12.77 98.11 11.74C98.11 10.72 98.45 9.84 99.15 9.14C99.85 8.42 100.71 8.07 101.76 8.07C102.79 8.07 103.65 8.42 104.36 9.14C105.06 9.85 105.42 10.72 105.42 11.74C105.41 12.78 105.06 13.65 104.36 14.35C103.66 15.07 102.8 15.42 101.76 15.42ZM101.76 14.55C102.52 14.55 103.17 14.29 103.69 13.77C104.21 13.24 104.48 12.57 104.48 11.74C104.48 10.92 104.22 10.25 103.69 9.72C103.16 9.19 102.52 8.92 101.76 8.92C101 8.92 100.35 9.18 99.82 9.71C99.29 10.25 99.03 10.92 99.03 11.74C99.03 12.57 99.29 13.24 99.82 13.77C100.35 14.29 101 14.55 101.76 14.55Z" stroke="#FFFFFF" stroke-opacity="1.000000" stroke-width="0.200000"/>
		<path id="Vector" d="M109.14 15.27L109.14 8.22L111.71 8.22C112.27 8.22 112.75 8.41 113.16 8.76C113.57 9.13 113.77 9.59 113.77 10.13C113.77 10.47 113.69 10.77 113.51 11.01C113.33 11.27 113.11 11.46 112.81 11.59L112.81 11.63C113.17 11.74 113.45 11.94 113.68 12.24C113.9 12.53 114.02 12.86 114.02 13.23C114.02 13.81 113.81 14.29 113.38 14.67C112.94 15.08 112.43 15.27 111.85 15.27L109.14 15.27ZM110.05 11.24L111.71 11.24C112.05 11.24 112.33 11.12 112.54 10.9C112.75 10.67 112.85 10.43 112.85 10.16C112.85 9.89 112.75 9.64 112.54 9.42C112.34 9.19 112.08 9.08 111.75 9.08L110.05 9.08L110.05 11.24ZM110.05 14.4L111.89 14.4C112.24 14.4 112.53 14.28 112.74 14.03C112.96 13.79 113.07 13.53 113.07 13.23C113.07 12.94 112.97 12.68 112.73 12.45C112.51 12.21 112.21 12.08 111.84 12.08L110.04 12.08L110.04 14.4L110.05 14.4Z" fill="#FFFFFF" fill-opacity="1.000000" fill-rule="nonzero"/>
		<path id="Vector" d="M109.14 8.22L111.71 8.22C112.27 8.22 112.75 8.41 113.16 8.76C113.57 9.13 113.77 9.59 113.77 10.13C113.77 10.47 113.69 10.77 113.51 11.01C113.33 11.27 113.11 11.46 112.81 11.59L112.81 11.63C113.17 11.74 113.45 11.94 113.68 12.24C113.9 12.53 114.02 12.86 114.02 13.23C114.02 13.81 113.81 14.29 113.38 14.67C112.94 15.08 112.43 15.27 111.85 15.27L109.14 15.27L109.14 8.22ZM111.71 11.24C112.05 11.24 112.33 11.12 112.54 10.9C112.75 10.67 112.85 10.43 112.85 10.16C112.85 9.89 112.75 9.64 112.54 9.42C112.34 9.19 112.08 9.08 111.75 9.08L110.05 9.08L110.05 11.24L111.71 11.24ZM111.89 14.4C112.24 14.4 112.53 14.28 112.74 14.03C112.96 13.79 113.07 13.53 113.07 13.23C113.07 12.94 112.97 12.68 112.73 12.45C112.51 12.21 112.21 12.08 111.84 12.08L110.04 12.08L110.04 14.4L110.05 14.4L111.89 14.4Z" stroke="#FFFFFF" stroke-opacity="1.000000" stroke-width="0.200000"/>
	</g>
</svg>
